HIERARCHY
ROOT Hips
{
	OFFSET 0.00000 0.00000 0.00000
	CHANNELS 6 Xposition Yposition Zposition Zrotation Yrotation Xrotation 
	JOINT LHipJoint
	{
		OFFSET 0 0 0
		CHANNELS 3 Zrotation Yrotation Xrotation
		JOINT LeftUpLeg
		{
			OFFSET 1.82298 -1.58346 0.87084
			CHANNELS 3 Zrotation Yrotation Xrotation
			JOINT LeftLeg
			{
				OFFSET 2.43790 -6.69809 0.00000
				CHANNELS 3 Zrotation Yrotation Xrotation
				JOINT LeftFoot
				{
					OFFSET 2.59288 -7.12389 0.00000
					CHANNELS 3 Zrotation Yrotation Xrotation
					JOINT LeftToeBase
					{
						OFFSET 0.14552 -0.39981 2.13160
						CHANNELS 3 Zrotation Yrotation Xrotation
						End Site
						{
							OFFSET 0.00000 -0.00000 1.09427
						}
					}
				}
			}
		}
	}
	JOINT RHipJoint
	{
		OFFSET 0 0 0
		CHANNELS 3 Zrotation Yrotation Xrotation
		JOINT RightUpLeg
		{
			OFFSET -1.77229 -1.58346 0.87084
			CHANNELS 3 Zrotation Yrotation Xrotation
			JOINT RightLeg
			{
				OFFSET -2.50703 -6.88801 0.00000
				CHANNELS 3 Zrotation Yrotation Xrotation
				JOINT RightFoot
				{
					OFFSET -2.61620 -7.18796 0.00000
					CHANNELS 3 Zrotation Yrotation Xrotation
					JOINT RightToeBase
					{
						OFFSET -0.15190 -0.41735 2.15974
						CHANNELS 3 Zrotation Yrotation Xrotation
						End Site
						{
							OFFSET -0.00000 -0.00000 1.10919
						}
					}
				}
			}
		}
	}
	JOINT LowerBack
	{
		OFFSET 0 0 0
		CHANNELS 3 Zrotation Yrotation Xrotation
		JOINT Spine
		{
			OFFSET -0.03602 2.12423 -0.30249
			CHANNELS 3 Zrotation Yrotation Xrotation
			JOINT Spine1
			{
				OFFSET 0.02717 2.10043 0.12912
				CHANNELS 3 Zrotation Yrotation Xrotation
				JOINT Neck
				{
					OFFSET 0 0 0
					CHANNELS 3 Zrotation Yrotation Xrotation
					JOINT Neck1
					{
						OFFSET -0.06371 1.88656 0.11602
						CHANNELS 3 Zrotation Yrotation Xrotation
						JOINT Head
						{
							OFFSET 0.08208 1.87759 -0.11505
							CHANNELS 3 Zrotation Yrotation Xrotation
							End Site
							{
								OFFSET 0.03382 1.93090 -0.05483
							}
						}
					}
				}
				JOINT LeftShoulder
				{
					OFFSET 0 0 0
					CHANNELS 3 Zrotation Yrotation Xrotation
					JOINT LeftArm
					{
						OFFSET 3.30903 1.40357 0.20156
						CHANNELS 3 Zrotation Yrotation Xrotation
						JOINT LeftForeArm
						{
							OFFSET 5.43301 -0.00000 0.00000
							CHANNELS 3 Zrotation Yrotation Xrotation
							JOINT LeftHand
							{
								OFFSET 3.15936 -0.00000 0.00000
								CHANNELS 3 Zrotation Yrotation Xrotation
								JOINT LeftFingerBase
								{
									OFFSET 0 0 0
									CHANNELS 3 Zrotation Yrotation Xrotation
									JOINT LeftHandIndex1
									{
										OFFSET 0.71283 -0.00000 0.00000
										CHANNELS 3 Zrotation Yrotation Xrotation
										End Site
										{
											OFFSET 0.57470 -0.00000 0.00000
										}
									}
								}
								JOINT LThumb
								{
									OFFSET 0 0 0
									CHANNELS 3 Zrotation Yrotation Xrotation
									End Site
									{
										OFFSET 0.58347 -0.00000 0.58347
									}
								}
							}
						}
					}
				}
				JOINT RightShoulder
				{
					OFFSET 0 0 0
					CHANNELS 3 Zrotation Yrotation Xrotation
					JOINT RightArm
					{
						OFFSET -3.12947 1.60037 -0.00464
						CHANNELS 3 Zrotation Yrotation Xrotation
						JOINT RightForeArm
						{
							OFFSET -5.34194 -0.00000 0.00000
							CHANNELS 3 Zrotation Yrotation Xrotation
							JOINT RightHand
							{
								OFFSET -3.19351 -0.00000 0.00000
								CHANNELS 3 Zrotation Yrotation Xrotation
								JOINT RightFingerBase
								{
									OFFSET 0 0 0
									CHANNELS 3 Zrotation Yrotation Xrotation
									JOINT RightHandIndex1
									{
										OFFSET -0.74386 -0.00000 0.00000
										CHANNELS 3 Zrotation Yrotation Xrotation
										End Site
										{
											OFFSET -0.59972 -0.00000 0.00000
										}
									}
								}
								JOINT RThumb
								{
									OFFSET 0 0 0
									CHANNELS 3 Zrotation Yrotation Xrotation
									End Site
									{
										OFFSET -0.60888 -0.00000 0.60888
									}
								}
							}
						}
					}
				}
			}
		}
	}
}
MOTION
Frames: 9
Frame Time: 0.0238095
0.00 0.00 0.00 54.8579 -45.6413 -52.0511 0.0000 0.0000 0.0000 30.4828 21.5114 -67.2538 19.3246 19.9891 88.0250 1.3864 3.0771 -23.5375 0.0069 0.5357 1.4721 0.0000 0.0000 0.0000 -9.9306 -1.2169 -14.9359 -4.4216 -12.7012 38.2602 -0.2939 -4.0953 -12.5824 -0.0088 -0.6042 1.6603 -7.1836 6.4913 31.9203 -8.2508 4.4142 5.6666 -6.6213 2.0365 -10.0407 -1.8362 6.6032 -3.8542 -8.5327 9.5171 6.0239 -2.0887 4.4047 2.9910 0.0000 0.0000 0.0000 -60.5268 1.2510 -3.0181 48.2561 -52.2675 -24.7881 -0.0000 0.0000 -28.7804 42.5492 13.9952 12.5160 -7.1250 0.0000 -0.0000 14.7774 48.1046 1.1554 0.0000 0.0000 0.0000 41.0655 21.7999 33.2311 -69.9798 58.4300 -42.7534 0.0000 0.0000 6.8280 -19.6974 -32.4282 10.8672 7.1250 -0.0000 -0.0000 15.3882 -63.3507 -6.9349
0.00 0.00 0.00 62.1089 -45.5527 -57.6680 0.0000 0.0000 0.0000 32.9647 19.7167 -60.1149 12.6686 18.6592 68.0928 0.8069 12.3854 -25.5921 0.0647 -1.6412 -4.5150 0.0000 0.0000 0.0000 -12.3094 -3.7152 -16.0571 -3.5108 -11.4792 33.9137 -0.0719 -7.5855 -12.2516 -0.1479 -2.4783 6.8295 -9.9324 7.6907 32.2608 -9.3011 4.7035 5.3933 -6.5112 2.2024 -10.5072 -1.4084 6.7583 -4.0461 -9.4476 9.8057 6.3645 -2.4477 4.5047 3.2464 0.0000 -0.0000 0.0000 -60.6379 2.7546 -4.7299 45.8078 -51.1581 -22.8662 -0.0000 0.0000 -27.3578 42.3336 12.7479 11.3663 -7.1250 0.0000 -0.0000 14.3729 46.4793 0.5356 0.0000 -0.0000 0.0000 40.4903 24.6762 34.2002 -70.6157 58.5315 -43.2955 0.0000 0.0000 6.9392 -19.1081 -33.2559 10.7569 7.1250 -0.0000 -0.0000 16.7699 -63.9865 -7.8240
0.00 0.00 0.00 66.3991 -44.8849 -60.0013 0.0000 0.0000 0.0000 36.9974 15.3771 -51.8247 6.1136 14.5375 45.4359 -0.5562 20.4262 -24.2473 0.1085 -2.1243 -5.8492 0.0000 0.0000 0.0000 -13.1640 -6.8062 -17.2159 -2.6170 -10.0476 29.1311 0.2579 -11.5569 -12.0205 -0.4034 -4.0778 11.2957 -11.5293 7.8980 31.9095 -10.2143 4.2582 4.9751 -6.5360 2.0194 -10.8613 -0.8778 6.8708 -4.1757 -10.2977 10.0310 6.7484 -2.8146 4.5761 3.5124 0.0000 0.0000 0.0000 -60.6719 3.9583 -6.6730 44.2428 -50.3921 -21.6538 -0.0000 0.0000 -23.0285 42.6153 12.8765 11.5868 -7.1250 0.0000 -0.0000 14.6736 46.6940 0.6266 0.0000 0.0000 0.0000 40.8784 27.2912 35.2262 -71.1712 58.6171 -43.7695 0.0000 0.0000 6.5449 -18.0470 -33.6332 10.2299 7.1250 -0.0000 -0.0000 18.3230 -64.0575 -8.6020
0.00 0.00 0.00 68.0499 -44.2473 -59.1136 0.0000 0.0000 0.0000 44.7146 7.6298 -42.0976 1.7519 8.3290 23.7180 -3.7355 32.6835 -21.7454 0.0176 -0.8570 -2.3554 0.0000 0.0000 0.0000 -13.0506 -9.2538 -18.4479 -1.8606 -8.5695 24.4576 0.7262 -16.0796 -12.5166 -0.6959 -5.3324 14.8592 -11.7706 7.2220 30.4917 -10.8265 3.4505 4.4295 -6.6952 1.6560 -10.9188 -0.4510 6.9101 -4.4874 -11.3013 10.2593 7.8513 -2.8584 4.5769 3.6612 -0.0000 0.0000 0.0000 -61.0710 4.8961 -8.3308 43.8659 -50.2006 -21.3638 -0.0000 0.0000 -18.9071 43.0863 14.1292 12.8616 -7.1250 0.0000 -0.0000 15.3528 48.3812 1.3092 -0.0000 0.0000 0.0000 41.7305 28.9490 36.2626 -72.6689 58.8341 -45.0496 0.0000 0.0000 5.2000 -18.3088 -34.3075 10.5643 7.1250 -0.0000 -0.0000 18.6644 -64.7613 -9.0729
0.00 0.00 0.00 75.3259 -42.6533 -63.3502 0.0000 0.0000 0.0000 36.4957 21.0825 -66.5596 6.5231 14.9168 47.0466 -1.3052 21.1961 -16.4509 0.0004 0.1252 0.3441 0.0000 0.0000 0.0000 -18.8676 -5.5732 -15.4782 -0.7021 -5.3556 14.9257 2.4945 -27.9323 -20.2989 -2.2645 -9.3966 27.0440 -11.5976 5.9772 28.7979 -10.6618 2.2737 4.5546 -6.0139 1.0868 -10.1007 0.6212 7.1438 -6.3653 -14.4332 11.4129 11.9458 -3.7980 4.6945 5.5563 -0.0000 0.0000 0.0000 -67.3011 4.5668 -12.5849 49.4136 -52.7562 -25.7066 -0.0000 0.0000 -23.9175 45.7279 15.3545 15.1953 -7.1250 0.0000 -0.0000 18.4166 50.5253 2.5838 -0.0000 0.0000 0.0000 40.4905 31.9338 39.7977 -86.1553 59.9441 -56.6710 0.0000 0.0000 3.5144 -15.9262 -34.0690 9.0820 7.1250 -0.0000 -0.0000 21.1229 -63.8927 -9.8897
0.00 0.00 0.00 78.5651 -44.2622 -66.4260 0.0000 0.0000 0.0000 35.4239 25.0147 -74.4614 11.7616 18.2880 65.2311 -0.1304 13.8527 -18.0968 0.0001 0.0504 0.1385 0.0000 0.0000 0.0000 -19.4979 -2.5768 -17.6079 -1.0162 -6.4135 17.9890 2.4655 -28.3611 -22.3018 -2.3030 -9.4705 27.2785 -9.8948 6.0450 28.2482 -10.2059 3.0937 4.6530 -6.6433 1.4363 -9.7138 1.4513 7.4556 -6.7848 -14.8507 12.0256 13.3303 -3.9900 4.9002 6.1880 -0.0000 -0.0000 0.0000 -69.0488 4.6465 -12.2439 50.9865 -53.3857 -26.9640 -0.0000 0.0000 -23.8491 47.1714 17.3375 17.8220 -7.1250 0.0000 -0.0000 20.5984 53.4447 4.4252 -0.0000 -0.0000 0.0000 40.1939 32.3072 41.3214 -87.3570 59.9736 -57.7113 0.0000 0.0000 3.8218 -15.6181 -34.2251 8.9354 7.1250 -0.0000 -0.0000 21.6194 -63.9532 -10.1633
0.00 0.00 0.00 82.1483 -46.0147 -69.6863 0.0000 0.0000 0.0000 34.2911 28.8592 -81.5926 17.4483 19.8432 82.5207 0.5700 8.4697 -19.7789 0.0181 0.8685 2.3870 0.0000 0.0000 0.0000 -20.2153 0.3248 -20.4437 -1.4456 -7.6008 21.5079 2.3515 -27.8118 -21.9540 -1.9910 -8.8473 25.3188 -7.5118 5.9101 28.1122 -10.0159 3.7207 4.6772 -7.9010 1.6837 -9.5389 2.4058 7.7036 -7.0081 -14.9878 12.3538 13.7533 -4.1462 5.0660 6.4547 0.0000 -0.0000 0.0000 -70.2003 5.0093 -11.4837 51.8237 -53.7051 -27.6374 -0.0000 0.0000 -23.7139 47.8922 18.5184 19.3619 -7.1250 0.0000 -0.0000 21.8509 55.1576 5.6479 0.0000 -0.0000 0.0000 40.8783 32.7434 43.0071 -86.8592 59.9627 -57.2803 0.0000 0.0000 3.5288 -15.2100 -34.8348 8.8276 7.1250 -0.0000 -0.0000 22.6937 -64.3975 -10.9280
0.00 0.00 0.00 89.6810 -44.3852 -75.2197 0.0000 0.0000 0.0000 24.1588 35.0563 -92.8242 25.1630 19.3485 105.2547 1.1333 4.8568 -22.4091 0.1119 2.1566 5.9385 0.0000 0.0000 0.0000 -25.1661 0.6524 -27.0789 -2.1598 -9.1912 26.3953 1.8573 -24.8621 -19.1590 -1.4828 -7.6935 21.7870 -9.9852 6.5460 27.2330 -9.9149 3.8851 4.3820 -6.4952 1.8113 -9.5434 2.9931 8.3165 -6.5637 -15.1001 13.0308 12.8663 -4.2236 5.4950 6.2049 0.0000 -0.0000 0.0000 -73.0986 6.0945 -11.1289 52.6541 -54.0114 -28.3080 -0.0000 0.0000 -23.7529 47.2145 16.8590 17.3984 -7.1250 0.0000 -0.0000 20.5078 52.8381 4.0932 0.0000 -0.0000 0.0000 40.9902 32.8574 46.3189 -88.1429 59.9870 -58.3918 0.0000 0.0000 2.0697 -14.9263 -35.1601 8.7273 7.1250 -0.0000 -0.0000 23.3525 -64.6133 -11.3786
0.00 0.00 0.00 97.4152 -48.0480 -80.9074 0.0000 0.0000 0.0000 9.4861 43.2683 -108.2617 31.3013 16.6099 124.9579 1.5374 -5.7341 -22.2784 0.0027 -0.3378 -0.9281 0.0000 0.0000 0.0000 -22.9883 0.3129 -35.1719 -3.0504 -10.7762 31.5287 1.0196 -19.4186 -16.2937 -0.7559 -5.5527 15.4919 -8.1023 6.8735 24.7273 -8.1220 5.5286 4.4663 -6.2486 2.5605 -8.6678 4.0156 8.8021 -6.7159 -14.0513 13.3807 12.3076 -4.0100 5.8206 6.0768 0.0000 0.0000 0.0000 -74.7457 6.8626 -8.3651 55.2640 -54.9098 -30.4319 -0.0000 0.0000 -23.6165 47.2093 16.2274 16.7979 -7.1250 0.0000 -0.0000 20.3164 52.0174 3.6339 0.0000 0.0000 0.0000 41.3312 31.0205 49.3508 -92.8239 59.9698 -62.4453 0.0000 0.0000 1.0600 -14.3487 -34.6264 8.2702 7.1250 -0.0000 -0.0000 23.4276 -63.9767 -11.0709
